<svg width="72" height="72" viewBox="0 0 72 72" fill="none" xmlns="http://www.w3.org/2000/svg">
<g id="cleaning_services_FILL0_wght400_GRAD0_opsz24 1">
<path id="Vector" d="M9 69V48C9 43.85 10.4625 40.3125 13.3875 37.3875C16.3125 34.4625 19.85 33 24 33H27V9C27 7.35 27.5875 5.9375 28.7625 4.7625C29.9375 3.5875 31.35 3 33 3H39C40.65 3 42.0625 3.5875 43.2375 4.7625C44.4125 5.9375 45 7.35 45 9V33H48C52.15 33 55.6875 34.4625 58.6125 37.3875C61.5375 40.3125 63 43.85 63 48V69H9ZM15 63H21V54C21 53.15 21.2875 52.4375 21.8625 51.8625C22.4375 51.2875 23.15 51 24 51C24.85 51 25.5625 51.2875 26.1375 51.8625C26.7125 52.4375 27 53.15 27 54V63H33V54C33 53.15 33.2875 52.4375 33.8625 51.8625C34.4375 51.2875 35.15 51 36 51C36.85 51 37.5625 51.2875 38.1375 51.8625C38.7125 52.4375 39 53.15 39 54V63H45V54C45 53.15 45.2875 52.4375 45.8625 51.8625C46.4375 51.2875 47.15 51 48 51C48.85 51 49.5625 51.2875 50.1375 51.8625C50.7125 52.4375 51 53.15 51 54V63H57V48C57 45.5 56.125 43.375 54.375 41.625C52.625 39.875 50.5 39 48 39H24C21.5 39 19.375 39.875 17.625 41.625C15.875 43.375 15 45.5 15 48V63ZM39 33V9H33V33H39Z" fill="white"/>
</g>
</svg>
