<svg width="72" height="72" viewBox="0 0 72 72" fill="none" xmlns="http://www.w3.org/2000/svg">
<g id="woman_FILL0_wght400_GRAD0_opsz24 1">
<path id="Vector" d="M30 66V48H21L30.15 24.9C30.65 23.7 31.425 22.75 32.475 22.05C33.525 21.35 34.7 21 36 21C37.3 21 38.475 21.35 39.525 22.05C40.575 22.75 41.35 23.7 41.85 24.9L51 48H42V66H30ZM36 18C34.35 18 32.9375 17.4125 31.7625 16.2375C30.5875 15.0625 30 13.65 30 12C30 10.35 30.5875 8.9375 31.7625 7.7625C32.9375 6.5875 34.35 6 36 6C37.65 6 39.0625 6.5875 40.2375 7.7625C41.4125 8.9375 42 10.35 42 12C42 13.65 41.4125 15.0625 40.2375 16.2375C39.0625 17.4125 37.65 18 36 18Z" fill="white"/>
</g>
</svg>
